<?xml version="1.0" encoding="UTF-8"?>
<svg xmlns="http://www.w3.org/2000/svg" viewBox="0 0 1024 1024" role="img" aria-labelledby="title desc">
  <title id="title">uYao app icon</title>
  <desc id="desc">uYao 有藥 reference-locked vector artwork. All lettering is outlined.</desc>
  <defs>
    <linearGradient id="app-mark-green" gradientUnits="userSpaceOnUse" x1="100" y1="48" x2="190" y2="316">
      <stop offset="0" stop-color="#89C840"/>
      <stop offset="0.54" stop-color="#54AF47"/>
      <stop offset="1" stop-color="#0C8F51"/>
    </linearGradient>
    <linearGradient id="app-word-green" gradientUnits="userSpaceOnUse" x1="2" y1="128" x2="102" y2="276">
      <stop offset="0" stop-color="#69B743"/>
      <stop offset="1" stop-color="#208A49"/>
    </linearGradient>
    <clipPath id="app-capsule-clip">
      <rect x="134" y="96" width="54" height="118" rx="27"/>
    </clipPath>
  </defs>
  <rect x="74" y="74" width="876" height="876" rx="190" fill="#FFFFFF"/>
  <g id="uyao-mark-primary" transform="translate(178 192) scale(1.86)">
    <path id="u-body" d="M62 66V202C62 270 102 302 160 302C220 302 246 270 246 211V129"
      fill="none" stroke="url(#app-mark-green)" stroke-width="50" stroke-linecap="round" stroke-linejoin="round"/>
    <g id="capsule" clip-path="url(#app-capsule-clip)">
      <rect x="134" y="96" width="54" height="118" fill="#D8E8DA"/>
      <rect x="134" y="161" width="54" height="53" fill="#0B4431"/>
    </g>
    <g id="search" fill="none" stroke="url(#app-mark-green)" stroke-linecap="round" stroke-linejoin="round">
      <circle cx="276" cy="257" r="36" stroke-width="18"/>
      <path d="M302 283L334 315" stroke-width="17"/>
    </g>
    <g id="wireless-signal" fill="none" stroke="#39A64D" stroke-linecap="round" stroke-width="11">
      <path d="M220 42C264 42 300 78 300 122"/>
      <path d="M220 67C250 67 275 92 275 122"/>
    </g>
  </g>
</svg>
